<svg xmlns="http://www.w3.org/2000/svg" xmlns:xlink="http://www.w3.org/1999/xlink" width="300" zoomAndPan="magnify" viewBox="0 0 224.87999 74.999997" height="100" preserveAspectRatio="xMidYMid meet" version="1.0"><defs><g/><clipPath id="0e14fdb297"><path d="M 0 0.0195312 L 224.761719 0.0195312 L 224.761719 74.980469 L 0 74.980469 Z M 0 0.0195312 " clip-rule="nonzero"/></clipPath><clipPath id="c43ea59717"><path d="M 41 23 L 59.628906 23 L 59.628906 55 L 41 55 Z M 41 23 " clip-rule="nonzero"/></clipPath><clipPath id="fd875d5c61"><path d="M 34 54 L 50 54 L 50 69.316406 L 34 69.316406 Z M 34 54 " clip-rule="nonzero"/></clipPath><clipPath id="557e5f8a1d"><path d="M 24.398438 40 L 33 40 L 33 47 L 24.398438 47 Z M 24.398438 40 " clip-rule="nonzero"/></clipPath><clipPath id="30725ab338"><path d="M 25 5.601562 L 42 5.601562 L 42 24 L 25 24 Z M 25 5.601562 " clip-rule="nonzero"/></clipPath><clipPath id="033837698b"><path d="M 51 40 L 59.628906 40 L 59.628906 47 L 51 47 Z M 51 40 " clip-rule="nonzero"/></clipPath><clipPath id="042262bc13"><path d="M 41 5.601562 L 58 5.601562 L 58 24 L 41 24 Z M 41 5.601562 " clip-rule="nonzero"/></clipPath></defs><g clip-path="url(#0e14fdb297)"><path fill="#ffffff" d="M 0 0.0195312 L 224.878906 0.0195312 L 224.878906 74.980469 L 0 74.980469 Z M 0 0.0195312 " fill-opacity="1" fill-rule="nonzero"/><path fill="#000000" d="M 0 0.0195312 L 224.878906 0.0195312 L 224.878906 74.980469 L 0 74.980469 Z M 0 0.0195312 " fill-opacity="1" fill-rule="nonzero"/></g><g clip-path="url(#c43ea59717)"><path fill="#5b5b5b" d="M 47.007812 44.816406 C 46.042969 45.472656 44.636719 45.816406 43.679688 46.738281 C 42.753906 47.628906 42.25 49.0625 42.957031 51.839844 C 42.957031 51.839844 43.574219 51.90625 44.480469 52.148438 C 45.253906 52.351562 46.234375 52.683594 47.230469 53.203125 C 47.898438 53.550781 48.574219 53.988281 49.199219 54.53125 L 52.753906 50.800781 C 52.753906 50.800781 53.40625 47.300781 51.90625 44.417969 C 51.679688 43.980469 51.398438 43.550781 51.058594 43.15625 L 51.0625 43.15625 C 51.152344 43.15625 52.835938 43.195312 54.324219 46.066406 C 54.324219 46.066406 56.222656 42.199219 58.949219 41.660156 C 58.949219 41.660156 58.992188 41.53125 59.042969 41.320312 C 59.242188 40.503906 59.628906 38.40625 58.746094 37.253906 C 58.367188 36.765625 58.089844 36.21875 57.898438 35.664062 C 57.523438 34.574219 57.476562 33.453125 57.671875 32.683594 C 57.671875 32.683594 57.609375 32.191406 57.304688 31.460938 C 57.003906 30.746094 56.46875 29.804688 55.523438 28.878906 C 54.679688 28.054688 53.507812 27.242188 51.886719 26.617188 L 53.867188 25.578125 C 53.867188 25.578125 53.597656 25.335938 53.097656 25.042969 C 52.308594 24.585938 50.953125 23.996094 49.164062 23.996094 C 47.15625 23.996094 44.609375 24.738281 41.71875 27.238281 L 41.71875 43.238281 C 44.15625 42.949219 46.71875 41.660156 46.71875 41.660156 C 46.71875 41.660156 48.910156 43.53125 47.007812 44.816406 Z M 43.769531 34.605469 C 43.765625 34.570312 43.761719 34.535156 43.753906 34.5 C 43.753906 34.5 47.324219 36.664062 49.992188 33.75 C 50.554688 33.136719 51.292969 32.703125 52.113281 32.5625 C 53.4375 32.335938 55.214844 32.589844 55.964844 35.191406 L 54.167969 35.191406 C 54.167969 35.191406 52.804688 39.082031 49.675781 38.832031 L 50.015625 40.859375 C 50.015625 40.859375 47.84375 39.550781 47.382812 37.304688 C 47.382812 37.308594 44.234375 37.425781 43.769531 34.605469 Z M 43.769531 34.605469 " fill-opacity="1" fill-rule="nonzero"/></g><g clip-path="url(#fd875d5c61)"><path fill="#5b5b5b" d="M 47.589844 59.234375 C 47.871094 60.246094 49.226562 61.324219 49.773438 62.21875 C 49.203125 63.570312 48.46875 64.796875 47.523438 65.917969 C 47.527344 64.5 47.179688 63.292969 46.453125 62.082031 C 46.414062 63.46875 45.949219 64.839844 45.140625 65.960938 C 44.683594 66.59375 44.125 67.144531 43.566406 67.691406 C 43.027344 68.222656 42.484375 68.753906 41.941406 69.289062 C 41.402344 68.753906 40.859375 68.222656 40.316406 67.691406 C 39.761719 67.144531 39.203125 66.59375 38.742188 65.960938 C 37.933594 64.839844 37.472656 63.46875 37.433594 62.082031 C 36.703125 63.292969 36.355469 64.5 36.359375 65.917969 C 35.859375 65.324219 35.417969 64.699219 35.027344 64.042969 C 34.683594 63.460938 34.378906 62.855469 34.113281 62.21875 C 34.640625 61.351562 35.707031 60.316406 36.027344 59.335938 C 36.039062 59.300781 36.050781 59.269531 36.058594 59.238281 L 35.132812 60.082031 L 34.058594 61.0625 C 34.105469 60.980469 34.148438 60.898438 34.195312 60.8125 C 34.648438 59.9375 34.988281 58.996094 35.203125 58.03125 C 35.292969 57.609375 35.363281 57.1875 35.40625 56.757812 C 36.382812 56.066406 37.691406 55.457031 39.023438 55.007812 C 40.917969 54.371094 42.964844 54.371094 44.859375 55.007812 C 46.191406 55.457031 47.503906 56.066406 48.476562 56.757812 C 48.632812 58.265625 49.09375 59.738281 49.824219 61.0625 Z M 47.589844 59.234375 " fill-opacity="1" fill-rule="nonzero"/></g><path fill="#404040" d="M 39.667969 34.605469 C 39.675781 34.570312 39.679688 34.535156 39.683594 34.5 C 39.683594 34.5 36.117188 36.664062 33.449219 33.75 C 32.886719 33.136719 32.148438 32.703125 31.324219 32.5625 C 30.003906 32.335938 28.226562 32.589844 27.472656 35.191406 L 29.273438 35.191406 C 27.824219 35.234375 26.539062 35.441406 25.539062 35.664062 C 25.917969 34.574219 25.960938 33.453125 25.769531 32.683594 C 25.769531 32.683594 25.832031 32.1875 26.136719 31.460938 C 30.390625 28.277344 33.390625 31.519531 33.582031 31.519531 C 39.019531 31.519531 40.066406 33.265625 40.066406 33.265625 C 39.96875 33.839844 39.824219 34.277344 39.667969 34.605469 Z M 39.667969 34.605469 " fill-opacity="1" fill-rule="nonzero"/><g clip-path="url(#557e5f8a1d)"><path fill="#404040" d="M 32.378906 43.15625 C 32.285156 43.15625 30.605469 43.195312 29.117188 46.066406 C 29.117188 46.066406 27.214844 42.199219 24.488281 41.660156 C 24.488281 41.660156 24.449219 41.53125 24.398438 41.320312 C 24.898438 40.707031 25.730469 40.167969 27.101562 40.296875 C 27.101562 40.296875 29.753906 43.078125 32.378906 43.15625 Z M 32.378906 43.15625 " fill-opacity="1" fill-rule="nonzero"/></g><path fill="#231f20" d="M 32.382812 43.15625 L 31.53125 44.417969 C 31.761719 43.980469 32.042969 43.550781 32.382812 43.15625 Z M 32.382812 43.15625 " fill-opacity="1" fill-rule="nonzero"/><path fill="#404040" d="M 40.480469 51.839844 C 40.480469 51.839844 39.867188 51.90625 38.957031 52.148438 C 37.359375 51.449219 35.40625 51.613281 33.785156 52.296875 C 33.785156 52.296875 35.273438 50.46875 38.332031 50.554688 C 38.332031 50.554688 36.96875 49.097656 33.789062 50.09375 C 33.847656 50.050781 36.171875 48.125 38.125 48.328125 C 38.125 48.328125 35.089844 47.25 32.546875 48.101562 C 32.625 48.039062 35.578125 45.667969 39.757812 46.738281 C 40.683594 47.628906 41.191406 49.0625 40.480469 51.839844 Z M 40.480469 51.839844 " fill-opacity="1" fill-rule="nonzero"/><path fill="#404040" d="M 38.167969 27.925781 C 33.578125 26.132812 29.777344 27.75 27.917969 28.878906 C 28.761719 28.054688 29.929688 27.238281 31.554688 26.617188 L 29.570312 25.578125 C 29.570312 25.578125 29.839844 25.335938 30.34375 25.042969 C 35.722656 24.65625 38.167969 27.925781 38.167969 27.925781 Z M 38.167969 27.925781 " fill-opacity="1" fill-rule="nonzero"/><path fill="#2cb834" d="M 31.347656 34.5 C 31.347656 34.5 30.730469 35.910156 32.152344 36.679688 C 33.578125 37.445312 34.742188 36.761719 34.742188 36.761719 L 32.542969 34.6875 L 33.316406 35.917969 Z M 31.347656 34.5 " fill-opacity="1" fill-rule="nonzero"/><g clip-path="url(#30725ab338)"><path fill="#404040" d="M 41.71875 5.628906 L 35.4375 9.703125 C 35.4375 9.703125 39.117188 14.355469 38.332031 18.054688 C 38.332031 18.054688 30.605469 19.757812 31.511719 11.820312 L 25.539062 14.273438 C 25.539062 14.273438 27.628906 17.515625 28.457031 21.960938 C 28.457031 21.960938 35.273438 18.511719 41.71875 23.414062 L 41.71875 18.253906 C 41.28125 16.746094 39.832031 12.078125 38.382812 10.75 L 41.71875 8.101562 Z M 29.335938 19.382812 L 27.917969 15.457031 L 29.675781 14.523438 C 30.292969 18.324219 29.335938 19.382812 29.335938 19.382812 Z M 29.335938 19.382812 " fill-opacity="1" fill-rule="nonzero"/></g><path fill="#404040" d="M 43.769531 34.605469 C 43.765625 34.570312 43.761719 34.535156 43.753906 34.5 C 43.753906 34.5 47.324219 36.664062 49.992188 33.75 C 50.554688 33.136719 51.292969 32.703125 52.113281 32.5625 C 53.4375 32.335938 55.214844 32.589844 55.964844 35.191406 L 54.167969 35.191406 C 55.617188 35.234375 56.902344 35.441406 57.898438 35.664062 C 57.523438 34.574219 57.476562 33.453125 57.671875 32.683594 C 57.671875 32.683594 57.609375 32.1875 57.304688 31.460938 C 53.050781 28.277344 50.050781 31.519531 49.859375 31.519531 C 44.421875 31.519531 43.371094 33.265625 43.371094 33.265625 C 43.472656 33.839844 43.617188 34.277344 43.769531 34.605469 Z M 43.769531 34.605469 " fill-opacity="1" fill-rule="nonzero"/><g clip-path="url(#033837698b)"><path fill="#404040" d="M 51.0625 43.15625 C 51.152344 43.15625 52.835938 43.195312 54.324219 46.066406 C 54.324219 46.066406 56.222656 42.199219 58.949219 41.660156 C 58.949219 41.660156 58.992188 41.53125 59.042969 41.320312 C 58.542969 40.707031 57.707031 40.167969 56.335938 40.296875 C 56.335938 40.296875 53.6875 43.078125 51.0625 43.15625 Z M 51.0625 43.15625 " fill-opacity="1" fill-rule="nonzero"/></g><path fill="#231f20" d="M 51.058594 43.15625 L 51.90625 44.417969 C 51.679688 43.980469 51.398438 43.550781 51.058594 43.15625 Z M 51.058594 43.15625 " fill-opacity="1" fill-rule="nonzero"/><path fill="#404040" d="M 42.957031 51.839844 C 42.957031 51.839844 43.574219 51.90625 44.480469 52.148438 C 46.078125 51.449219 48.035156 51.613281 49.652344 52.296875 C 49.652344 52.296875 48.167969 50.46875 45.109375 50.554688 C 45.109375 50.554688 46.46875 49.097656 49.652344 50.09375 C 49.589844 50.050781 47.269531 48.125 45.3125 48.328125 C 45.3125 48.328125 48.351562 47.25 50.890625 48.101562 C 50.816406 48.039062 47.863281 45.667969 43.679688 46.738281 C 42.753906 47.628906 42.25 49.0625 42.957031 51.839844 Z M 42.957031 51.839844 " fill-opacity="1" fill-rule="nonzero"/><path fill="#404040" d="M 45.273438 27.925781 C 49.863281 26.132812 53.660156 27.75 55.523438 28.878906 C 54.679688 28.054688 53.507812 27.238281 51.886719 26.617188 L 53.867188 25.578125 C 53.867188 25.578125 53.597656 25.335938 53.097656 25.042969 C 47.714844 24.65625 45.273438 27.925781 45.273438 27.925781 Z M 45.273438 27.925781 " fill-opacity="1" fill-rule="nonzero"/><path fill="#2cb834" d="M 52.089844 34.5 C 52.089844 34.5 52.710938 35.910156 51.285156 36.679688 C 49.859375 37.445312 48.699219 36.761719 48.699219 36.761719 L 50.898438 34.6875 L 50.125 35.917969 Z M 52.089844 34.5 " fill-opacity="1" fill-rule="nonzero"/><g clip-path="url(#042262bc13)"><path fill="#5b5b5b" d="M 41.71875 8.101562 L 45.058594 10.75 C 43.609375 12.078125 42.160156 16.746094 41.71875 18.253906 L 41.71875 23.414062 C 48.167969 18.511719 54.984375 21.960938 54.984375 21.960938 C 55.8125 17.515625 57.898438 14.273438 57.898438 14.273438 L 51.925781 11.820312 C 52.835938 19.757812 45.109375 18.054688 45.109375 18.054688 C 44.324219 14.355469 48 9.703125 48 9.703125 L 41.71875 5.628906 Z M 53.765625 14.523438 L 55.523438 15.457031 L 54.105469 19.382812 C 54.105469 19.382812 53.144531 18.324219 53.765625 14.523438 Z M 53.765625 14.523438 " fill-opacity="1" fill-rule="nonzero"/></g><path fill="#404040" d="M 37.433594 62.082031 C 36.703125 63.292969 36.355469 64.5 36.359375 65.917969 C 35.859375 65.324219 35.417969 64.699219 35.027344 64.042969 C 35.621094 63.25 36.414062 62.492188 37.433594 62.082031 Z M 37.433594 62.082031 " fill-opacity="1" fill-rule="nonzero"/><path fill="#404040" d="M 38.75 56.585938 C 38.75 56.585938 37.890625 57.71875 36.027344 59.335938 C 35.753906 59.574219 35.453125 59.824219 35.132812 60.082031 C 34.839844 60.320312 34.527344 60.5625 34.195312 60.8125 C 34.648438 59.9375 34.988281 58.996094 35.203125 58.03125 C 36.261719 57.632812 38.75 56.585938 38.75 56.585938 Z M 38.75 56.585938 " fill-opacity="1" fill-rule="nonzero"/><path fill="#404040" d="M 46.453125 62.082031 C 47.179688 63.292969 47.527344 64.5 47.523438 65.917969 C 48.027344 65.324219 48.46875 64.699219 48.855469 64.042969 C 48.261719 63.25 47.46875 62.492188 46.453125 62.082031 Z M 46.453125 62.082031 " fill-opacity="1" fill-rule="nonzero"/><path fill="#404040" d="M 45.132812 56.585938 C 45.132812 56.585938 45.992188 57.71875 47.855469 59.335938 C 48.132812 59.574219 48.429688 59.824219 48.75 60.082031 C 49.046875 60.320312 49.359375 60.5625 49.691406 60.8125 C 49.234375 59.9375 48.894531 58.996094 48.683594 58.03125 C 47.621094 57.632812 45.132812 56.585938 45.132812 56.585938 Z M 45.132812 56.585938 " fill-opacity="1" fill-rule="nonzero"/><g fill="#ffffff" fill-opacity="1"><g transform="translate(62.469023, 42.237369)"><g><path d="M 9.101562 -5.933594 L 5.5625 -5.933594 C 5.191406 -5.933594 5.09375 -5.753906 5.09375 -5.464844 L 5.09375 -4.203125 C 5.09375 -3.914062 5.191406 -3.734375 5.5625 -3.734375 L 7.015625 -3.734375 C 7.015625 -2.488281 6.273438 -2.003906 5.222656 -2.003906 C 4.15625 -2.003906 3.445312 -2.601562 3.445312 -3.636719 L 3.445312 -6.886719 C 3.445312 -7.921875 4.15625 -8.632812 5.222656 -8.632812 C 6.304688 -8.632812 6.886719 -8.148438 7.066406 -7.648438 C 7.144531 -7.421875 7.082031 -7.097656 7.535156 -7.097656 L 9.101562 -7.097656 C 9.472656 -7.097656 9.570312 -7.164062 9.570312 -7.550781 C 9.570312 -9.714844 7.242188 -10.882812 5.222656 -10.882812 C 3.3125 -10.882812 0.875 -9.796875 0.875 -7.242188 L 0.875 -3.265625 C 0.875 -0.726562 3.3125 0.242188 5.222656 0.242188 C 7.066406 0.242188 9.425781 -0.792969 9.570312 -3.121094 L 9.570312 -5.464844 C 9.570312 -5.753906 9.472656 -5.933594 9.101562 -5.933594 Z M 9.101562 -5.933594 "/></g></g></g><g fill="#ffffff" fill-opacity="1"><g transform="translate(72.912429, 42.237369)"><g><path d="M 9.910156 -0.515625 L 7.632812 -3.832031 C 8.632812 -4.171875 9.878906 -5.351562 9.878906 -7.050781 C 9.878906 -8.082031 9.539062 -9.003906 8.941406 -9.585938 C 8.261719 -10.265625 7.484375 -10.621094 5.722656 -10.621094 L 1.648438 -10.621094 C 1.277344 -10.621094 1.195312 -10.445312 1.195312 -10.152344 L 1.195312 -0.46875 C 1.195312 -0.0976562 1.359375 0 1.648438 0 L 3.25 0 C 3.539062 0 3.71875 -0.0976562 3.71875 -0.46875 L 3.71875 -8.359375 L 5.867188 -8.359375 C 6.710938 -8.359375 7.355469 -7.824219 7.355469 -6.984375 C 7.355469 -6.222656 6.613281 -5.675781 5.820312 -5.675781 L 5.496094 -5.675781 C 5.125 -5.675781 5.027344 -5.496094 5.027344 -5.207031 L 5.027344 -3.914062 C 5.027344 -3.460938 5.058594 -3.28125 5.207031 -3.089844 L 6.953125 -0.484375 C 7.179688 -0.144531 7.371094 0 7.761719 0 L 9.667969 0 C 9.976562 0 10.054688 -0.292969 9.910156 -0.515625 Z M 9.910156 -0.515625 "/></g></g></g><g fill="#ffffff" fill-opacity="1"><g transform="translate(83.679159, 42.237369)"><g><path d="M 9.554688 -3.410156 L 9.554688 -7.226562 C 9.554688 -9.78125 7.128906 -10.882812 5.207031 -10.882812 C 3.28125 -10.882812 0.890625 -9.78125 0.890625 -7.226562 L 0.890625 -3.410156 C 0.890625 -0.855469 3.28125 0.242188 5.207031 0.242188 C 7.128906 0.242188 9.554688 -0.855469 9.554688 -3.410156 Z M 7.015625 -7 L 7.015625 -3.636719 C 7.015625 -2.601562 6.273438 -2.003906 5.207031 -2.003906 C 4.15625 -2.003906 3.410156 -2.601562 3.410156 -3.636719 L 3.410156 -7 C 3.410156 -8.035156 4.15625 -8.632812 5.207031 -8.632812 C 6.273438 -8.632812 7.015625 -8.035156 7.015625 -7 Z M 7.015625 -7 "/></g></g></g><g fill="#ffffff" fill-opacity="1"><g transform="translate(94.106402, 42.237369)"><g><path d="M 13.886719 -10.636719 L 12.175781 -10.636719 C 11.6875 -10.636719 11.574219 -10.316406 11.527344 -10.121094 L 9.925781 -4.625 L 8.359375 -10.121094 C 8.292969 -10.347656 8.179688 -10.636719 7.824219 -10.636719 L 6.695312 -10.636719 C 6.320312 -10.636719 6.207031 -10.347656 6.144531 -10.121094 L 4.589844 -4.625 L 2.992188 -10.121094 C 2.925781 -10.316406 2.828125 -10.636719 2.34375 -10.636719 L 0.566406 -10.636719 C 0.273438 -10.636719 0.226562 -10.363281 0.273438 -10.167969 L 3.265625 -0.339844 C 3.265625 -0.339844 3.347656 0 3.703125 0 L 5.125 0 C 5.546875 0 5.640625 -0.371094 5.640625 -0.371094 L 7.257812 -5.53125 L 8.875 -0.371094 C 8.875 -0.371094 8.972656 0 9.394531 0 L 10.75 0 C 11.105469 0 11.1875 -0.339844 11.1875 -0.339844 L 14.164062 -10.167969 C 14.226562 -10.363281 14.179688 -10.636719 13.886719 -10.636719 Z M 13.886719 -10.636719 "/></g></g></g><g fill="#ffffff" fill-opacity="1"><g transform="translate(108.623707, 42.237369)"><g><path d="M 8.390625 -10.636719 L 0.890625 -10.636719 C 0.515625 -10.636719 0.421875 -10.460938 0.421875 -10.167969 L 0.421875 -8.828125 C 0.421875 -8.535156 0.515625 -8.359375 0.890625 -8.359375 L 3.378906 -8.359375 L 3.378906 -0.46875 C 3.378906 -0.0976562 3.558594 0 3.847656 0 L 5.449219 0 C 5.738281 0 5.917969 -0.0976562 5.917969 -0.46875 L 5.917969 -8.359375 L 8.390625 -8.359375 C 8.761719 -8.359375 8.859375 -8.535156 8.859375 -8.828125 L 8.859375 -10.167969 C 8.859375 -10.460938 8.761719 -10.636719 8.390625 -10.636719 Z M 8.390625 -10.636719 "/></g></g></g><g fill="#ffffff" fill-opacity="1"><g transform="translate(117.903142, 42.237369)"><g><path d="M 9.410156 -10.636719 L 7.808594 -10.636719 C 7.519531 -10.636719 7.339844 -10.542969 7.339844 -10.167969 L 7.339844 -6.515625 L 3.734375 -6.515625 L 3.734375 -10.167969 C 3.734375 -10.542969 3.574219 -10.636719 3.265625 -10.636719 L 1.664062 -10.636719 C 1.375 -10.636719 1.195312 -10.542969 1.195312 -10.167969 L 1.195312 -0.46875 C 1.195312 -0.0976562 1.375 0 1.664062 0 L 3.265625 0 C 3.574219 0 3.734375 -0.0976562 3.734375 -0.46875 L 3.734375 -4.121094 L 7.339844 -4.121094 L 7.339844 -0.46875 C 7.339844 -0.0976562 7.519531 0 7.808594 0 L 9.410156 0 C 9.699219 0 9.878906 -0.0976562 9.878906 -0.46875 L 9.878906 -10.167969 C 9.878906 -10.542969 9.699219 -10.636719 9.410156 -10.636719 Z M 9.410156 -10.636719 "/></g></g></g><g fill="#ffffff" fill-opacity="1"><g transform="translate(128.977032, 42.237369)"><g><path d="M 9.394531 -3.152344 C 9.394531 -3.539062 9.265625 -3.703125 8.910156 -3.703125 L 7.324219 -3.703125 C 6.96875 -3.703125 6.9375 -3.445312 6.886719 -3.121094 C 6.757812 -2.34375 6.0625 -2.019531 5.191406 -2.019531 C 4.121094 -2.019531 3.394531 -2.601562 3.394531 -3.636719 L 3.394531 -7 C 3.394531 -8.019531 4.121094 -8.617188 5.191406 -8.617188 C 6.0625 -8.617188 6.515625 -8.375 6.855469 -7.839844 C 6.984375 -7.648438 7 -7.339844 7.339844 -7.339844 L 8.890625 -7.339844 C 9.265625 -7.339844 9.394531 -7.421875 9.394531 -7.808594 C 9.183594 -9.863281 7.195312 -10.882812 5.191406 -10.882812 C 3.265625 -10.882812 0.855469 -9.765625 0.855469 -7.226562 L 0.855469 -3.410156 C 0.855469 -0.875 3.265625 0.242188 5.191406 0.242188 C 7.195312 0.242188 9.394531 -1.066406 9.394531 -3.152344 Z M 9.394531 -3.152344 "/></g></g></g><g fill="#ffffff" fill-opacity="1"><g transform="translate(139.194112, 42.237369)"><g><path d="M 9.910156 -0.515625 L 7.632812 -3.832031 C 8.632812 -4.171875 9.878906 -5.351562 9.878906 -7.050781 C 9.878906 -8.082031 9.539062 -9.003906 8.941406 -9.585938 C 8.261719 -10.265625 7.484375 -10.621094 5.722656 -10.621094 L 1.648438 -10.621094 C 1.277344 -10.621094 1.195312 -10.445312 1.195312 -10.152344 L 1.195312 -0.46875 C 1.195312 -0.0976562 1.359375 0 1.648438 0 L 3.25 0 C 3.539062 0 3.71875 -0.0976562 3.71875 -0.46875 L 3.71875 -8.359375 L 5.867188 -8.359375 C 6.710938 -8.359375 7.355469 -7.824219 7.355469 -6.984375 C 7.355469 -6.222656 6.613281 -5.675781 5.820312 -5.675781 L 5.496094 -5.675781 C 5.125 -5.675781 5.027344 -5.496094 5.027344 -5.207031 L 5.027344 -3.914062 C 5.027344 -3.460938 5.058594 -3.28125 5.207031 -3.089844 L 6.953125 -0.484375 C 7.179688 -0.144531 7.371094 0 7.761719 0 L 9.667969 0 C 9.976562 0 10.054688 -0.292969 9.910156 -0.515625 Z M 9.910156 -0.515625 "/></g></g></g><g fill="#ffffff" fill-opacity="1"><g transform="translate(149.960841, 42.237369)"><g><path d="M 10.347656 -0.453125 L 6.773438 -10.136719 C 6.628906 -10.476562 6.46875 -10.636719 6.113281 -10.636719 L 4.558594 -10.636719 C 4.203125 -10.636719 4.027344 -10.476562 3.894531 -10.136719 L 0.308594 -0.453125 C 0.226562 -0.257812 0.226562 0 0.582031 0 L 2.28125 0 C 2.636719 0 2.765625 -0.0976562 2.894531 -0.484375 L 3.347656 -1.761719 L 7.308594 -1.761719 L 7.761719 -0.484375 C 7.890625 -0.0976562 8.019531 0 8.375 0 L 10.074219 0 C 10.429688 0 10.429688 -0.257812 10.347656 -0.453125 Z M 5.335938 -7.597656 L 6.546875 -4.027344 L 4.121094 -4.027344 Z M 5.335938 -7.597656 "/></g></g></g><g fill="#ffffff" fill-opacity="1"><g transform="translate(160.54974, 42.237369)"><g><path d="M 8.617188 -10.636719 L 1.664062 -10.636719 C 1.292969 -10.636719 1.195312 -10.460938 1.195312 -10.167969 L 1.195312 -0.46875 C 1.195312 -0.179688 1.292969 0 1.664062 0 L 3.265625 0 C 3.636719 0 3.734375 -0.0664062 3.734375 -0.484375 L 3.734375 -4.269531 L 7.9375 -4.269531 C 8.308594 -4.269531 8.40625 -4.445312 8.40625 -4.738281 L 8.40625 -6.015625 C 8.40625 -6.304688 8.308594 -6.484375 7.9375 -6.484375 L 3.734375 -6.484375 L 3.734375 -8.375 L 8.617188 -8.375 C 8.988281 -8.375 9.085938 -8.550781 9.085938 -8.84375 L 9.085938 -10.167969 C 9.085938 -10.460938 8.988281 -10.636719 8.617188 -10.636719 Z M 8.617188 -10.636719 "/></g></g></g><g fill="#ffffff" fill-opacity="1"><g transform="translate(170.281828, 42.237369)"><g><path d="M 8.390625 -10.636719 L 0.890625 -10.636719 C 0.515625 -10.636719 0.421875 -10.460938 0.421875 -10.167969 L 0.421875 -8.828125 C 0.421875 -8.535156 0.515625 -8.359375 0.890625 -8.359375 L 3.378906 -8.359375 L 3.378906 -0.46875 C 3.378906 -0.0976562 3.558594 0 3.847656 0 L 5.449219 0 C 5.738281 0 5.917969 -0.0976562 5.917969 -0.46875 L 5.917969 -8.359375 L 8.390625 -8.359375 C 8.761719 -8.359375 8.859375 -8.535156 8.859375 -8.828125 L 8.859375 -10.167969 C 8.859375 -10.460938 8.761719 -10.636719 8.390625 -10.636719 Z M 8.390625 -10.636719 "/></g></g></g><g fill="#ffffff" fill-opacity="1"><g transform="translate(179.561264, 42.237369)"><g><path d="M 8.910156 -2.261719 L 3.75 -2.261719 L 3.75 -4.398438 L 8.082031 -4.398438 C 8.457031 -4.398438 8.550781 -4.574219 8.550781 -4.867188 L 8.550781 -6.128906 C 8.550781 -6.417969 8.457031 -6.597656 8.082031 -6.597656 L 3.75 -6.597656 L 3.75 -8.359375 L 8.632812 -8.359375 C 9.003906 -8.359375 9.101562 -8.535156 9.101562 -8.828125 L 9.101562 -10.167969 C 9.101562 -10.460938 9.003906 -10.636719 8.632812 -10.636719 L 1.664062 -10.636719 C 1.292969 -10.636719 1.195312 -10.460938 1.195312 -10.167969 L 1.195312 -0.46875 C 1.195312 -0.179688 1.292969 0 1.664062 0 L 8.910156 0 C 9.28125 0 9.378906 -0.179688 9.378906 -0.46875 L 9.378906 -1.792969 C 9.378906 -2.085938 9.28125 -2.261719 8.910156 -2.261719 Z M 8.910156 -2.261719 "/></g></g></g><g fill="#ffffff" fill-opacity="1"><g transform="translate(189.69751, 42.237369)"><g><path d="M 9.910156 -0.515625 L 7.632812 -3.832031 C 8.632812 -4.171875 9.878906 -5.351562 9.878906 -7.050781 C 9.878906 -8.082031 9.539062 -9.003906 8.941406 -9.585938 C 8.261719 -10.265625 7.484375 -10.621094 5.722656 -10.621094 L 1.648438 -10.621094 C 1.277344 -10.621094 1.195312 -10.445312 1.195312 -10.152344 L 1.195312 -0.46875 C 1.195312 -0.0976562 1.359375 0 1.648438 0 L 3.25 0 C 3.539062 0 3.71875 -0.0976562 3.71875 -0.46875 L 3.71875 -8.359375 L 5.867188 -8.359375 C 6.710938 -8.359375 7.355469 -7.824219 7.355469 -6.984375 C 7.355469 -6.222656 6.613281 -5.675781 5.820312 -5.675781 L 5.496094 -5.675781 C 5.125 -5.675781 5.027344 -5.496094 5.027344 -5.207031 L 5.027344 -3.914062 C 5.027344 -3.460938 5.058594 -3.28125 5.207031 -3.089844 L 6.953125 -0.484375 C 7.179688 -0.144531 7.371094 0 7.761719 0 L 9.667969 0 C 9.976562 0 10.054688 -0.292969 9.910156 -0.515625 Z M 9.910156 -0.515625 "/></g></g></g></svg>