<svg xmlns="http://www.w3.org/2000/svg" xmlns:xlink="http://www.w3.org/1999/xlink" width="300" zoomAndPan="magnify" viewBox="0 0 224.87999 74.999997" height="100" preserveAspectRatio="xMidYMid meet" version="1.0"><defs><g/><clipPath id="66bcf201c0"><path d="M 7.496094 21 L 58 21 L 58 59.035156 L 7.496094 59.035156 Z M 7.496094 21 " clip-rule="nonzero"/></clipPath><clipPath id="02514b9e8e"><path d="M 44 16.308594 L 60.71875 16.308594 L 60.71875 28 L 44 28 Z M 44 16.308594 " clip-rule="nonzero"/></clipPath><clipPath id="c189bbe465"><path d="M 57 16.308594 L 60.71875 16.308594 L 60.71875 32 L 57 32 Z M 57 16.308594 " clip-rule="nonzero"/></clipPath></defs><g clip-path="url(#66bcf201c0)"><path fill="#ffffff" d="M 57.054688 21.464844 C 56.101562 21.878906 54.945312 22.421875 53.578125 23.09375 C 52.210938 23.765625 51.4375 24.140625 51.246094 24.214844 C 49.953125 26.417969 48.988281 27.953125 48.320312 28.828125 C 46.339844 31.460938 44.167969 33.929688 41.824219 36.253906 C 31.871094 46.097656 20.433594 53.695312 7.523438 59.035156 C 9.96875 58.511719 12.820312 57.734375 16.097656 56.703125 C 19.371094 55.667969 22.796875 54.410156 26.367188 52.929688 C 29.941406 51.449219 33.480469 49.667969 36.96875 47.601562 C 40.457031 45.535156 43.835938 43.074219 47.09375 40.238281 C 50.347656 37.394531 53.175781 34.292969 55.570312 30.914062 L 57.34375 28.453125 C 57.394531 28.261719 57.460938 27.859375 57.554688 27.261719 C 57.648438 26.664062 57.691406 25.511719 57.691406 23.820312 C 57.691406 22.125 57.480469 21.335938 57.054688 21.464844 Z M 57.054688 21.464844 " fill-opacity="1" fill-rule="nonzero"/></g><g clip-path="url(#02514b9e8e)"><path fill="#ffffff" d="M 57.394531 18.417969 C 55.136719 19.953125 53.015625 21.367188 51.035156 22.667969 C 49.054688 23.957031 46.976562 24.992188 44.792969 25.746094 C 45.714844 26.621094 46.804688 27.078125 48.066406 27.121094 C 49.910156 27.230469 51.628906 26.8125 53.207031 25.855469 C 54.765625 24.925781 56.207031 23.839844 57.542969 22.617188 C 58.890625 21.378906 59.886719 19.417969 60.542969 16.710938 C 60.691406 16.308594 59.652344 16.871094 57.394531 18.417969 Z M 57.394531 18.417969 " fill-opacity="1" fill-rule="nonzero"/></g><g clip-path="url(#c189bbe465)"><path fill="#ffffff" d="M 60.554688 16.585938 C 60.308594 16.925781 60.128906 17.136719 60.035156 17.246094 C 59.738281 17.554688 59.230469 18.351562 58.507812 19.652344 C 57.789062 20.941406 57.34375 22.464844 57.171875 24.234375 C 57.003906 25.992188 57.164062 27.515625 57.648438 28.796875 C 57.96875 29.625 58.625 30.617188 59.632812 31.769531 C 59.570312 31.085938 59.472656 29.777344 59.378906 27.824219 C 59.273438 25.875 59.335938 24.160156 59.558594 22.679688 C 59.769531 21.1875 60.109375 19.152344 60.554688 16.585938 Z M 60.554688 16.585938 " fill-opacity="1" fill-rule="nonzero"/></g><g fill="#ffffff" fill-opacity="1"><g transform="translate(61.232116, 42.237369)"><g><path d="M 9.101562 -5.933594 L 5.5625 -5.933594 C 5.191406 -5.933594 5.09375 -5.753906 5.09375 -5.464844 L 5.09375 -4.203125 C 5.09375 -3.914062 5.191406 -3.734375 5.5625 -3.734375 L 7.015625 -3.734375 C 7.015625 -2.488281 6.273438 -2.003906 5.222656 -2.003906 C 4.15625 -2.003906 3.445312 -2.601562 3.445312 -3.636719 L 3.445312 -6.886719 C 3.445312 -7.921875 4.15625 -8.632812 5.222656 -8.632812 C 6.304688 -8.632812 6.886719 -8.148438 7.066406 -7.648438 C 7.144531 -7.421875 7.082031 -7.097656 7.535156 -7.097656 L 9.101562 -7.097656 C 9.472656 -7.097656 9.570312 -7.164062 9.570312 -7.550781 C 9.570312 -9.714844 7.242188 -10.882812 5.222656 -10.882812 C 3.3125 -10.882812 0.875 -9.796875 0.875 -7.242188 L 0.875 -3.265625 C 0.875 -0.726562 3.3125 0.242188 5.222656 0.242188 C 7.066406 0.242188 9.425781 -0.792969 9.570312 -3.121094 L 9.570312 -5.464844 C 9.570312 -5.753906 9.472656 -5.933594 9.101562 -5.933594 Z M 9.101562 -5.933594 "/></g></g></g><g fill="#ffffff" fill-opacity="1"><g transform="translate(71.675522, 42.237369)"><g><path d="M 9.910156 -0.515625 L 7.632812 -3.832031 C 8.632812 -4.171875 9.878906 -5.351562 9.878906 -7.050781 C 9.878906 -8.082031 9.539062 -9.003906 8.941406 -9.585938 C 8.261719 -10.265625 7.484375 -10.621094 5.722656 -10.621094 L 1.648438 -10.621094 C 1.277344 -10.621094 1.195312 -10.445312 1.195312 -10.152344 L 1.195312 -0.46875 C 1.195312 -0.0976562 1.359375 0 1.648438 0 L 3.25 0 C 3.539062 0 3.71875 -0.0976562 3.71875 -0.46875 L 3.71875 -8.359375 L 5.867188 -8.359375 C 6.710938 -8.359375 7.355469 -7.824219 7.355469 -6.984375 C 7.355469 -6.222656 6.613281 -5.675781 5.820312 -5.675781 L 5.496094 -5.675781 C 5.125 -5.675781 5.027344 -5.496094 5.027344 -5.207031 L 5.027344 -3.914062 C 5.027344 -3.460938 5.058594 -3.28125 5.207031 -3.089844 L 6.953125 -0.484375 C 7.179688 -0.144531 7.371094 0 7.761719 0 L 9.667969 0 C 9.976562 0 10.054688 -0.292969 9.910156 -0.515625 Z M 9.910156 -0.515625 "/></g></g></g><g fill="#ffffff" fill-opacity="1"><g transform="translate(82.442252, 42.237369)"><g><path d="M 9.554688 -3.410156 L 9.554688 -7.226562 C 9.554688 -9.78125 7.128906 -10.882812 5.207031 -10.882812 C 3.28125 -10.882812 0.890625 -9.78125 0.890625 -7.226562 L 0.890625 -3.410156 C 0.890625 -0.855469 3.28125 0.242188 5.207031 0.242188 C 7.128906 0.242188 9.554688 -0.855469 9.554688 -3.410156 Z M 7.015625 -7 L 7.015625 -3.636719 C 7.015625 -2.601562 6.273438 -2.003906 5.207031 -2.003906 C 4.15625 -2.003906 3.410156 -2.601562 3.410156 -3.636719 L 3.410156 -7 C 3.410156 -8.035156 4.15625 -8.632812 5.207031 -8.632812 C 6.273438 -8.632812 7.015625 -8.035156 7.015625 -7 Z M 7.015625 -7 "/></g></g></g><g fill="#ffffff" fill-opacity="1"><g transform="translate(92.869495, 42.237369)"><g><path d="M 13.886719 -10.636719 L 12.175781 -10.636719 C 11.6875 -10.636719 11.574219 -10.316406 11.527344 -10.121094 L 9.925781 -4.625 L 8.359375 -10.121094 C 8.292969 -10.347656 8.179688 -10.636719 7.824219 -10.636719 L 6.695312 -10.636719 C 6.320312 -10.636719 6.207031 -10.347656 6.144531 -10.121094 L 4.589844 -4.625 L 2.992188 -10.121094 C 2.925781 -10.316406 2.828125 -10.636719 2.34375 -10.636719 L 0.566406 -10.636719 C 0.273438 -10.636719 0.226562 -10.363281 0.273438 -10.167969 L 3.265625 -0.339844 C 3.265625 -0.339844 3.347656 0 3.703125 0 L 5.125 0 C 5.546875 0 5.640625 -0.371094 5.640625 -0.371094 L 7.257812 -5.53125 L 8.875 -0.371094 C 8.875 -0.371094 8.972656 0 9.394531 0 L 10.75 0 C 11.105469 0 11.1875 -0.339844 11.1875 -0.339844 L 14.164062 -10.167969 C 14.226562 -10.363281 14.179688 -10.636719 13.886719 -10.636719 Z M 13.886719 -10.636719 "/></g></g></g><g fill="#ffffff" fill-opacity="1"><g transform="translate(107.3868, 42.237369)"><g><path d="M 8.390625 -10.636719 L 0.890625 -10.636719 C 0.515625 -10.636719 0.421875 -10.460938 0.421875 -10.167969 L 0.421875 -8.828125 C 0.421875 -8.535156 0.515625 -8.359375 0.890625 -8.359375 L 3.378906 -8.359375 L 3.378906 -0.46875 C 3.378906 -0.0976562 3.558594 0 3.847656 0 L 5.449219 0 C 5.738281 0 5.917969 -0.0976562 5.917969 -0.46875 L 5.917969 -8.359375 L 8.390625 -8.359375 C 8.761719 -8.359375 8.859375 -8.535156 8.859375 -8.828125 L 8.859375 -10.167969 C 8.859375 -10.460938 8.761719 -10.636719 8.390625 -10.636719 Z M 8.390625 -10.636719 "/></g></g></g><g fill="#ffffff" fill-opacity="1"><g transform="translate(116.666235, 42.237369)"><g><path d="M 9.410156 -10.636719 L 7.808594 -10.636719 C 7.519531 -10.636719 7.339844 -10.542969 7.339844 -10.167969 L 7.339844 -6.515625 L 3.734375 -6.515625 L 3.734375 -10.167969 C 3.734375 -10.542969 3.574219 -10.636719 3.265625 -10.636719 L 1.664062 -10.636719 C 1.375 -10.636719 1.195312 -10.542969 1.195312 -10.167969 L 1.195312 -0.46875 C 1.195312 -0.0976562 1.375 0 1.664062 0 L 3.265625 0 C 3.574219 0 3.734375 -0.0976562 3.734375 -0.46875 L 3.734375 -4.121094 L 7.339844 -4.121094 L 7.339844 -0.46875 C 7.339844 -0.0976562 7.519531 0 7.808594 0 L 9.410156 0 C 9.699219 0 9.878906 -0.0976562 9.878906 -0.46875 L 9.878906 -10.167969 C 9.878906 -10.542969 9.699219 -10.636719 9.410156 -10.636719 Z M 9.410156 -10.636719 "/></g></g></g><g fill="#ffffff" fill-opacity="1"><g transform="translate(127.740125, 42.237369)"><g><path d="M 9.394531 -3.152344 C 9.394531 -3.539062 9.265625 -3.703125 8.910156 -3.703125 L 7.324219 -3.703125 C 6.96875 -3.703125 6.9375 -3.445312 6.886719 -3.121094 C 6.757812 -2.34375 6.0625 -2.019531 5.191406 -2.019531 C 4.121094 -2.019531 3.394531 -2.601562 3.394531 -3.636719 L 3.394531 -7 C 3.394531 -8.019531 4.121094 -8.617188 5.191406 -8.617188 C 6.0625 -8.617188 6.515625 -8.375 6.855469 -7.839844 C 6.984375 -7.648438 7 -7.339844 7.339844 -7.339844 L 8.890625 -7.339844 C 9.265625 -7.339844 9.394531 -7.421875 9.394531 -7.808594 C 9.183594 -9.863281 7.195312 -10.882812 5.191406 -10.882812 C 3.265625 -10.882812 0.855469 -9.765625 0.855469 -7.226562 L 0.855469 -3.410156 C 0.855469 -0.875 3.265625 0.242188 5.191406 0.242188 C 7.195312 0.242188 9.394531 -1.066406 9.394531 -3.152344 Z M 9.394531 -3.152344 "/></g></g></g><g fill="#ffffff" fill-opacity="1"><g transform="translate(137.957204, 42.237369)"><g><path d="M 9.910156 -0.515625 L 7.632812 -3.832031 C 8.632812 -4.171875 9.878906 -5.351562 9.878906 -7.050781 C 9.878906 -8.082031 9.539062 -9.003906 8.941406 -9.585938 C 8.261719 -10.265625 7.484375 -10.621094 5.722656 -10.621094 L 1.648438 -10.621094 C 1.277344 -10.621094 1.195312 -10.445312 1.195312 -10.152344 L 1.195312 -0.46875 C 1.195312 -0.0976562 1.359375 0 1.648438 0 L 3.25 0 C 3.539062 0 3.71875 -0.0976562 3.71875 -0.46875 L 3.71875 -8.359375 L 5.867188 -8.359375 C 6.710938 -8.359375 7.355469 -7.824219 7.355469 -6.984375 C 7.355469 -6.222656 6.613281 -5.675781 5.820312 -5.675781 L 5.496094 -5.675781 C 5.125 -5.675781 5.027344 -5.496094 5.027344 -5.207031 L 5.027344 -3.914062 C 5.027344 -3.460938 5.058594 -3.28125 5.207031 -3.089844 L 6.953125 -0.484375 C 7.179688 -0.144531 7.371094 0 7.761719 0 L 9.667969 0 C 9.976562 0 10.054688 -0.292969 9.910156 -0.515625 Z M 9.910156 -0.515625 "/></g></g></g><g fill="#ffffff" fill-opacity="1"><g transform="translate(148.723934, 42.237369)"><g><path d="M 10.347656 -0.453125 L 6.773438 -10.136719 C 6.628906 -10.476562 6.46875 -10.636719 6.113281 -10.636719 L 4.558594 -10.636719 C 4.203125 -10.636719 4.027344 -10.476562 3.894531 -10.136719 L 0.308594 -0.453125 C 0.226562 -0.257812 0.226562 0 0.582031 0 L 2.28125 0 C 2.636719 0 2.765625 -0.0976562 2.894531 -0.484375 L 3.347656 -1.761719 L 7.308594 -1.761719 L 7.761719 -0.484375 C 7.890625 -0.0976562 8.019531 0 8.375 0 L 10.074219 0 C 10.429688 0 10.429688 -0.257812 10.347656 -0.453125 Z M 5.335938 -7.597656 L 6.546875 -4.027344 L 4.121094 -4.027344 Z M 5.335938 -7.597656 "/></g></g></g><g fill="#ffffff" fill-opacity="1"><g transform="translate(159.312833, 42.237369)"><g><path d="M 8.617188 -10.636719 L 1.664062 -10.636719 C 1.292969 -10.636719 1.195312 -10.460938 1.195312 -10.167969 L 1.195312 -0.46875 C 1.195312 -0.179688 1.292969 0 1.664062 0 L 3.265625 0 C 3.636719 0 3.734375 -0.0664062 3.734375 -0.484375 L 3.734375 -4.269531 L 7.9375 -4.269531 C 8.308594 -4.269531 8.40625 -4.445312 8.40625 -4.738281 L 8.40625 -6.015625 C 8.40625 -6.304688 8.308594 -6.484375 7.9375 -6.484375 L 3.734375 -6.484375 L 3.734375 -8.375 L 8.617188 -8.375 C 8.988281 -8.375 9.085938 -8.550781 9.085938 -8.84375 L 9.085938 -10.167969 C 9.085938 -10.460938 8.988281 -10.636719 8.617188 -10.636719 Z M 8.617188 -10.636719 "/></g></g></g><g fill="#ffffff" fill-opacity="1"><g transform="translate(169.044921, 42.237369)"><g><path d="M 8.390625 -10.636719 L 0.890625 -10.636719 C 0.515625 -10.636719 0.421875 -10.460938 0.421875 -10.167969 L 0.421875 -8.828125 C 0.421875 -8.535156 0.515625 -8.359375 0.890625 -8.359375 L 3.378906 -8.359375 L 3.378906 -0.46875 C 3.378906 -0.0976562 3.558594 0 3.847656 0 L 5.449219 0 C 5.738281 0 5.917969 -0.0976562 5.917969 -0.46875 L 5.917969 -8.359375 L 8.390625 -8.359375 C 8.761719 -8.359375 8.859375 -8.535156 8.859375 -8.828125 L 8.859375 -10.167969 C 8.859375 -10.460938 8.761719 -10.636719 8.390625 -10.636719 Z M 8.390625 -10.636719 "/></g></g></g><g fill="#ffffff" fill-opacity="1"><g transform="translate(178.324357, 42.237369)"><g><path d="M 8.910156 -2.261719 L 3.75 -2.261719 L 3.75 -4.398438 L 8.082031 -4.398438 C 8.457031 -4.398438 8.550781 -4.574219 8.550781 -4.867188 L 8.550781 -6.128906 C 8.550781 -6.417969 8.457031 -6.597656 8.082031 -6.597656 L 3.75 -6.597656 L 3.75 -8.359375 L 8.632812 -8.359375 C 9.003906 -8.359375 9.101562 -8.535156 9.101562 -8.828125 L 9.101562 -10.167969 C 9.101562 -10.460938 9.003906 -10.636719 8.632812 -10.636719 L 1.664062 -10.636719 C 1.292969 -10.636719 1.195312 -10.460938 1.195312 -10.167969 L 1.195312 -0.46875 C 1.195312 -0.179688 1.292969 0 1.664062 0 L 8.910156 0 C 9.28125 0 9.378906 -0.179688 9.378906 -0.46875 L 9.378906 -1.792969 C 9.378906 -2.085938 9.28125 -2.261719 8.910156 -2.261719 Z M 8.910156 -2.261719 "/></g></g></g><g fill="#ffffff" fill-opacity="1"><g transform="translate(188.460603, 42.237369)"><g><path d="M 9.910156 -0.515625 L 7.632812 -3.832031 C 8.632812 -4.171875 9.878906 -5.351562 9.878906 -7.050781 C 9.878906 -8.082031 9.539062 -9.003906 8.941406 -9.585938 C 8.261719 -10.265625 7.484375 -10.621094 5.722656 -10.621094 L 1.648438 -10.621094 C 1.277344 -10.621094 1.195312 -10.445312 1.195312 -10.152344 L 1.195312 -0.46875 C 1.195312 -0.0976562 1.359375 0 1.648438 0 L 3.25 0 C 3.539062 0 3.71875 -0.0976562 3.71875 -0.46875 L 3.71875 -8.359375 L 5.867188 -8.359375 C 6.710938 -8.359375 7.355469 -7.824219 7.355469 -6.984375 C 7.355469 -6.222656 6.613281 -5.675781 5.820312 -5.675781 L 5.496094 -5.675781 C 5.125 -5.675781 5.027344 -5.496094 5.027344 -5.207031 L 5.027344 -3.914062 C 5.027344 -3.460938 5.058594 -3.28125 5.207031 -3.089844 L 6.953125 -0.484375 C 7.179688 -0.144531 7.371094 0 7.761719 0 L 9.667969 0 C 9.976562 0 10.054688 -0.292969 9.910156 -0.515625 Z M 9.910156 -0.515625 "/></g></g></g></svg>